<svg width="20" height="20" viewBox="0 0 20 20" fill="none" xmlns="http://www.w3.org/2000/svg">
<path d="M2.77499 4.87507C3.1121 4.67647 3.49623 4.57173 3.8875 4.57173C4.27876 4.57173 4.66289 4.67647 5 4.87507L8.33333 6.79174C8.33408 6.40194 8.43723 6.01919 8.63243 5.68179C8.82764 5.34439 9.10806 5.0642 9.44561 4.86926C9.78316 4.67433 10.166 4.57149 10.5558 4.57105C10.9456 4.5706 11.3287 4.67257 11.6667 4.86674L17.225 8.07507C17.5623 8.27061 17.8424 8.55137 18.0371 8.88922C18.2317 9.22707 18.3342 9.61015 18.3342 10.0001C18.3342 10.39 18.2317 10.7731 18.0371 11.1109C17.8424 11.4488 17.5623 11.7295 17.225 11.9251L11.6667 15.1334C11.3287 15.3295 10.9449 15.4328 10.5542 15.4328C10.1634 15.4328 9.77963 15.3295 9.44166 15.1334C9.10333 14.9391 8.82253 14.6585 8.62785 14.3204C8.43316 13.9823 8.33154 13.5986 8.33333 13.2084L5 15.1334C4.66286 15.3279 4.28089 15.4313 3.89166 15.4334C3.49841 15.4335 3.1125 15.3269 2.77499 15.1251C2.43674 14.9327 2.15579 14.6538 1.96101 14.317C1.76622 13.9801 1.66463 13.5975 1.66666 13.2084V6.79174C1.66463 6.40264 1.76622 6.02001 1.96101 5.68316C2.15579 5.34632 2.43674 5.0674 2.77499 4.87507ZM9.99999 13.2084C9.99875 13.3061 10.0236 13.4024 10.0719 13.4874C10.1202 13.5723 10.1903 13.6429 10.275 13.6917C10.3604 13.7392 10.4565 13.7641 10.5542 13.7641C10.6518 13.7641 10.7479 13.7392 10.8333 13.6917L16.3917 10.4834C16.4764 10.4344 16.5468 10.3639 16.5958 10.2791C16.6447 10.1942 16.6705 10.098 16.6705 10.0001C16.6705 9.90213 16.6447 9.80592 16.5958 9.72108C16.5468 9.63624 16.4764 9.56577 16.3917 9.51674L10.8333 6.30841C10.7485 6.2594 10.6522 6.23361 10.5542 6.23361C10.4562 6.23361 10.3599 6.2594 10.275 6.30841C10.1903 6.35727 10.1202 6.42781 10.0719 6.51276C10.0236 6.59771 9.99875 6.69401 9.99999 6.79174V13.2084ZM3.33333 13.2084C3.33521 13.3051 3.36216 13.3996 3.41155 13.4827C3.46094 13.5659 3.53106 13.6347 3.61507 13.6826C3.69907 13.7305 3.79407 13.7557 3.89076 13.7559C3.98745 13.756 4.08252 13.7311 4.16666 13.6834L8.33333 11.2834V8.71674L4.16666 6.31674C4.08252 6.2691 3.98745 6.24412 3.89076 6.24426C3.79407 6.2444 3.69907 6.26964 3.61507 6.31753C3.53106 6.36541 3.46094 6.43429 3.41155 6.51741C3.36216 6.60054 3.33521 6.69507 3.33333 6.79174V13.2084Z" fill="#250486"/>
</svg>
