<svg width="149" height="61" viewBox="0 0 149 61" fill="none" xmlns="http://www.w3.org/2000/svg">
<path d="M8.10047 22.7958C6.18288 22.5774 4.25707 23.1298 2.7467 24.3313C1.23634 25.5328 0.265136 27.2851 0.0467486 29.2027C-0.171638 31.1203 0.38068 33.0461 1.5822 34.5565C2.78372 36.0668 4.53602 37.038 6.45361 37.2564C6.45361 37.2564 6.45361 37.2564 6.45361 37.2564C8.78049 37.5229 11.1463 37.7864 13.4953 38.0363C17.3493 38.4469 21.1884 38.8295 25.0424 39.1915C25.0435 39.1916 25.0446 39.1917 25.0457 39.1918C39.8489 40.2498 53.2552 39.7222 67.1431 39.8339C67.1451 39.8339 67.1471 39.8339 67.1491 39.8339C84.0015 39.7937 100.602 38.9951 117.718 36.2494L117.364 36.3024C117.365 36.3023 117.367 36.3021 117.368 36.3019C121.148 35.8064 124.905 35.5198 128.917 35.075L128.736 35.0813C128.737 35.0813 128.737 35.0812 128.738 35.0812C132.623 34.7574 136.689 32.9667 140.676 31.0184C143.014 29.8789 145.339 28.6916 147.633 27.7136C145.245 26.9938 142.881 25.9584 140.531 24.9317C136.506 23.1788 132.559 21.43 128.433 21.2681C128.432 21.2681 128.431 21.268 128.431 21.268L128.25 21.2744C124.163 21.2262 119.837 21.4031 115.583 21.9512C115.582 21.9514 115.58 21.9516 115.579 21.9518L115.224 22.0048C99.7494 24.461 83.3102 25.2689 67.1616 25.2848C67.1596 25.2848 67.1576 25.2848 67.1556 25.2848C53.4085 25.1881 39.157 25.6333 26.4064 24.7015C26.4053 24.7014 26.4042 24.7013 26.4031 24.7012C22.605 24.3444 18.8248 23.9677 15.0372 23.5642C12.7235 23.318 10.424 23.0619 8.10047 22.7958Z" fill="#270099"/>
<path d="M128.398 2.0399C126.964 0.68174 125.049 -0.0510135 123.074 0.00283718C121.099 0.0566883 119.227 0.892732 117.869 2.32705C116.511 3.76137 115.778 5.67646 115.832 7.65104C115.886 9.62562 116.722 11.4979 118.156 12.8561C118.156 12.8561 118.156 12.8561 118.156 12.8561C118.91 13.5704 119.662 14.2949 120.41 15.0271C125.253 19.7812 130.066 24.8661 134.456 29.9226C134.459 29.9257 134.461 29.9287 134.464 29.9317C134.246 29.7075 133.552 28.7446 133.429 27.5017C133.301 26.2833 133.629 25.6533 133.466 25.9951L134.659 24.0403C134.655 24.0456 134.65 24.0508 134.646 24.0561C128.566 31.0743 121.389 38.0873 114.42 44.9795L114.724 44.6965C114.722 44.6978 114.721 44.6992 114.719 44.7005C114.338 45.038 114.045 45.3078 113.874 45.4787C113.697 45.6528 113.63 45.7539 113.482 45.9116C113.215 46.2084 112.567 46.6899 111.792 47.2297C110.354 48.1593 109.126 49.466 108.456 51.0736C107.786 52.6799 107.721 54.4342 108.296 56.008C108.871 57.5818 110.052 58.8807 111.6 59.6762C113.149 60.473 114.93 60.6802 116.629 60.4632C116.629 60.4632 116.629 60.4632 116.629 60.4632C117.89 60.2548 119.263 59.9335 120.891 59.1751C122.608 58.3861 124.175 57.1405 125.034 56.3726C125.036 56.3709 125.038 56.3693 125.04 56.3676L125.344 56.0846C132.505 48.9874 139.487 41.9737 146.35 33.8897C146.355 33.8833 146.36 33.877 146.365 33.8707L147.559 31.9159C147.934 30.9894 148.71 28.9978 148.473 26.3858C148.257 23.7501 146.887 21.4936 145.764 20.2271C145.761 20.2236 145.759 20.2202 145.756 20.2167C140.911 14.6406 136.033 9.49579 130.828 4.37961C130.026 3.59571 129.217 2.81567 128.398 2.0399Z" fill="#270099"/>
</svg>
