<svg width="45" height="50" viewBox="0 0 45 50" fill="none" xmlns="http://www.w3.org/2000/svg">
<path d="M12.0199 4.10829C11.4677 2.56217 10.324 1.29873 8.84026 0.595918C7.35653 -0.106899 5.65438 -0.191523 4.10827 0.360662C2.56215 0.912847 1.29871 2.05661 0.595893 3.54033C-0.106924 5.02406 -0.191548 6.72621 0.360637 8.27232C0.360637 8.27232 0.360637 8.27232 0.360637 8.27232C0.602951 8.95085 0.867082 9.69045 1.16412 10.4572C2.88928 15.0382 5.60176 19.13 8.25065 22.6124C8.25429 22.6172 8.25793 22.622 8.26158 22.6268C14.0807 30.0884 20.7738 37.1115 30.3616 41.569C31.1471 41.9172 31.9582 42.2416 32.7875 42.5318C34.1689 43.0038 35.6893 42.9515 37.0293 42.3481C38.3691 41.7451 39.4162 40.6466 39.9431 39.287C40.4701 37.9274 40.4367 36.4101 39.8532 35.0617C39.2698 33.713 38.1817 32.6497 36.843 32.0675C36.843 32.0675 36.843 32.0675 36.843 32.0675C36.3304 31.8377 35.8137 31.5818 35.3005 31.305C28.9513 27.8163 23.0862 21.6004 18.1177 15.1344C18.1145 15.1303 18.1114 15.1262 18.1082 15.122C15.7669 12.0324 13.9018 9.15444 12.7093 5.98646C12.4855 5.40929 12.2625 4.78824 12.0199 4.10829Z" fill="#270099"/>
<path d="M43.5595 21.5015C43.2235 19.8486 42.2446 18.3968 40.8382 17.4655C39.4318 16.5343 37.713 16.1999 36.0601 16.5359C34.4071 16.8719 32.9553 17.8508 32.0241 19.2572C31.0929 20.6637 30.7585 22.3824 31.0945 24.0354C31.0945 24.0354 31.0945 24.0354 31.0945 24.0354C31.1833 24.4723 31.2625 24.9278 31.3313 25.3913C31.8377 28.845 31.7907 32.5662 31.2216 36.0987C31.2214 36.1001 31.2212 36.1014 31.221 36.1027L31.6048 34.7281C31.5265 34.8616 31.5618 34.7 31.1208 34.9317C30.6925 35.1384 29.812 35.5259 28.785 36.0414C28.784 36.042 28.7829 36.0425 28.7819 36.043C26.0605 37.4294 23.9663 39.3234 21.2516 42.0705C20.8124 42.5189 20.3621 42.9882 19.8993 43.4786C19.4911 43.8966 19.1065 44.3349 18.8522 44.8195C18.598 45.3051 18.4966 45.8061 18.5839 46.2878C18.6712 46.7696 18.9421 47.2031 19.3505 47.5686C19.7587 47.9332 20.2727 48.2085 20.8016 48.4567C20.8016 48.4567 20.8016 48.4567 20.8016 48.4567C21.466 48.7428 22.138 48.988 22.8161 49.1909C26.9203 50.4623 31.4395 49.9584 34.9189 48.1537C34.9202 48.1531 34.9215 48.1524 34.9228 48.1517C37.1814 46.976 41.4623 44.4313 43.395 39.5016L43.7788 38.127C43.7791 38.1252 43.7794 38.1234 43.7797 38.1216C44.5464 33.2964 44.6267 28.4494 43.9135 23.5246C43.8142 22.8555 43.6978 22.1822 43.5595 21.5015Z" fill="#270099"/>
</svg>
