<svg width="143" height="78" viewBox="0 0 143 78" fill="none" xmlns="http://www.w3.org/2000/svg">
<path d="M10.4749 11.6297C8.79668 10.7475 6.83676 10.5681 5.0263 11.131C3.21583 11.6939 1.70313 12.953 0.820969 14.6312C-0.0611924 16.3094 -0.240552 18.2693 0.322348 20.0798C0.885247 21.8903 2.1443 23.403 3.82252 24.2851C3.82252 24.2851 3.82252 24.2851 3.82252 24.2851C5.78924 25.3249 7.9042 26.4752 10.0015 27.579C21.1244 33.4506 32.4477 38.752 43.8339 43.8011C43.9845 43.8678 44.1355 43.9347 44.287 44.0017C61.7325 51.4486 79.2386 55.5701 96.4369 59.9465C96.563 59.9783 96.6885 60.01 96.8133 60.0415C105.421 62.1908 114.521 64.3536 123.934 65.0088C124.002 65.0142 124.07 65.0193 124.138 65.0241C127.09 65.2334 130.022 64.9278 132.919 64.1664C135.295 63.545 137.662 62.5983 139.969 61.4475C140.612 61.1483 141.235 60.7922 141.716 60.3073C142.197 59.8221 142.498 59.2439 142.559 58.6241C142.62 58.0043 142.439 57.3784 142.062 56.8082C141.685 56.2385 141.144 55.7672 140.573 55.348C140.573 55.348 140.573 55.348 140.573 55.348C138.224 53.7556 135.911 52.5852 133.617 51.6945C130.823 50.6153 128.063 49.9854 125.33 49.7513C125.267 49.7459 125.204 49.7407 125.141 49.7357C116.998 49.1775 108.913 47.3533 100.444 45.3338C100.316 45.3031 100.188 45.2722 100.059 45.2412C82.7831 41.0773 65.3694 37.4791 50.0696 30.9257C49.9207 30.8599 49.7723 30.7943 49.6244 30.7288C38.4356 25.7676 27.3929 20.5932 16.6732 14.9337C14.6252 13.8559 12.6493 12.7797 10.4749 11.6297Z" fill="#270099"/>
<path d="M132.508 34.6928C131.403 33.2976 129.79 32.3986 128.022 32.1934C126.254 31.9883 124.477 32.4938 123.082 33.5987C121.687 34.7037 120.788 36.3176 120.583 38.0854C120.377 39.8532 120.883 41.6301 121.988 43.0253C121.988 43.0253 121.988 43.0253 121.988 43.0253C122.407 43.5539 122.812 44.0813 123.201 44.6088C126.595 49.1658 128.673 53.7491 129.055 58.7094L129.475 55.7684C129.475 55.7704 129.474 55.7723 129.473 55.7743C128.431 58.3767 125.706 61.9098 123.429 65.0274C123.428 65.029 123.427 65.0306 123.425 65.0322C121.996 66.9803 121.529 69.6422 121.806 73.2138C121.881 74.2227 122.018 75.3002 122.175 76.4656C122.196 76.6331 122.215 76.7933 122.245 76.927C122.276 77.0616 122.322 77.1652 122.399 77.2425C122.476 77.3197 122.58 77.3651 122.715 77.3961C122.848 77.4261 123.009 77.4458 123.176 77.4666C123.176 77.4666 123.176 77.4666 123.176 77.4666C124.378 77.5827 125.517 77.5724 126.58 77.4756C130.347 77.1269 133.16 75.6752 134.837 73.3876C134.838 73.3857 134.84 73.3838 134.841 73.3819C137.566 69.5384 139.769 65.9281 142.006 60.5756C142.008 60.5705 142.009 60.5654 142.011 60.5603L142.432 57.6193C141.877 49.7371 138.259 42.2808 133.996 36.6354C133.506 35.9716 133.009 35.3247 132.508 34.6928Z" fill="#270099"/>
</svg>
