<svg width="50" height="48" viewBox="0 0 50 48" fill="none" xmlns="http://www.w3.org/2000/svg">
<path d="M47.8264 10.1979C48.8439 8.85221 49.2852 7.15742 49.0532 5.48637C48.8212 3.81531 47.9349 2.30486 46.5892 1.28731C45.2435 0.269754 43.5487 -0.171553 41.8776 0.0604696C40.2066 0.292492 38.6961 1.17884 37.6786 2.52452C37.6786 2.52452 37.6786 2.52452 37.6786 2.52452C37.2456 3.09714 36.8114 3.66732 36.3757 4.23489C33.1284 8.46585 29.7842 12.5571 26.2599 16.4237C26.238 16.4477 26.2161 16.4716 26.1942 16.4956L26.7225 15.9803C23.0443 19.1763 19.0795 21.6164 14.8766 23.6374C14.8473 23.6516 14.818 23.6659 14.7888 23.6803L14.8843 23.6353C12.8345 24.6118 12.1345 25.4308 11.381 26.5125C11.1197 26.8437 10.7792 27.1953 10.2571 27.4721C9.43565 27.5916 8.61974 27.7672 7.91441 28.1217C7.20868 28.4771 6.66775 28.9902 6.36918 29.638C6.07062 30.2857 6.03188 31.0303 6.22006 31.7977C6.40864 32.5643 6.80514 33.2987 7.24788 34.0008C7.24788 34.0008 7.24788 34.0008 7.24788 34.0008C8.05771 34.8933 9.14547 35.6395 10.3404 36.1267C14.3544 37.7158 18.2247 36.6075 20.4188 35.6163L20.5143 35.5713C20.5514 35.5537 20.5884 35.536 20.6253 35.5182C25.9608 32.9593 30.7721 29.3364 35.0631 25.5873L35.5914 25.0719C35.6152 25.0458 35.639 25.0197 35.6628 24.9936C39.4955 20.7884 43.0666 16.4126 46.4671 11.9823C46.9232 11.3882 47.3762 10.7933 47.8264 10.1979Z" fill="#270099"/>
<path d="M17.1233 18.5744C17.7797 16.891 17.7405 15.0157 17.0143 13.3612C16.288 11.7067 14.9343 10.4085 13.2508 9.75207C11.5674 9.09568 9.69215 9.13492 8.03765 9.86116C6.38314 10.5874 5.08489 11.9411 4.42851 13.6246C4.42851 13.6246 4.42851 13.6246 4.42851 13.6246C4.19797 14.2159 3.96853 14.8122 3.7413 15.4153C2.08572 19.9249 0.270372 24.8625 0.0618601 30.963L-2.38419e-06 33.3868L1.48332 35.3048C1.48364 35.3052 1.48395 35.3056 1.48427 35.306C5.25089 40.2695 10.7336 45.3179 17.7196 47.1837C17.7207 47.184 17.7218 47.1843 17.7229 47.1846L18.1907 47.2967C19.3032 47.6107 22.3843 47.3572 23.6675 46.1502C24.4644 45.5309 25.075 44.7418 25.5892 43.8126C25.9724 42.99 26.3408 42.2052 26.5906 41.521C26.8389 40.8301 26.9376 40.2452 26.8212 39.6841C26.7048 39.123 26.3816 38.6256 25.8789 38.0905C25.3777 37.5621 24.7275 36.9886 24.0486 36.3864C24.0486 36.3864 24.0486 36.3864 24.0486 36.3864C23.3585 35.7064 22.7615 35.133 22.3425 34.6545C21.9502 34.2156 21.7537 33.8516 21.7168 33.6073C21.6782 33.362 21.667 33.2475 21.0915 33.1281L21.5593 33.2402C21.5587 33.24 21.5581 33.2399 21.5576 33.2397C18.2075 32.3423 14.9238 30.4174 12.2623 26.9697C12.2621 26.9694 12.2619 26.9691 12.2617 26.9689L13.6831 31.3106C13.7462 28.1896 14.9554 24.2833 16.492 20.2194C16.697 19.6754 16.9079 19.1269 17.1233 18.5744Z" fill="#270099"/>
</svg>
