<svg width="20" height="20" viewBox="0 0 20 20" fill="none" xmlns="http://www.w3.org/2000/svg">
<path d="M17.225 4.87507C16.8879 4.67647 16.5038 4.57173 16.1125 4.57173C15.7212 4.57173 15.3371 4.67647 15 4.87507L11.6667 6.79174C11.6659 6.40194 11.5628 6.01919 11.3676 5.68179C11.1724 5.34439 10.8919 5.0642 10.5544 4.86926C10.2168 4.67433 9.834 4.57149 9.4442 4.57105C9.05441 4.5706 8.67133 4.67257 8.33334 4.86674L2.77501 8.07507C2.43766 8.27061 2.15762 8.55137 1.96294 8.88922C1.76827 9.22707 1.6658 9.61015 1.6658 10.0001C1.6658 10.39 1.76827 10.7731 1.96294 11.1109C2.15762 11.4488 2.43766 11.7295 2.77501 11.9251L8.33334 15.1334C8.6713 15.3295 9.0551 15.4328 9.44584 15.4328C9.83658 15.4328 10.2204 15.3295 10.5583 15.1334C10.8967 14.9391 11.1775 14.6585 11.3722 14.3204C11.5668 13.9823 11.6685 13.5986 11.6667 13.2084L15 15.1334C15.3371 15.3279 15.7191 15.4313 16.1083 15.4334C16.5016 15.4335 16.8875 15.3269 17.225 15.1251C17.5633 14.9327 17.8442 14.6538 18.039 14.317C18.2338 13.9801 18.3354 13.5975 18.3333 13.2084V6.79174C18.3354 6.40264 18.2338 6.02001 18.039 5.68316C17.8442 5.34632 17.5633 5.0674 17.225 4.87507ZM10 13.2084C10.0012 13.3061 9.97642 13.4024 9.92809 13.4874C9.87976 13.5723 9.80966 13.6429 9.72501 13.6917C9.6396 13.7392 9.54353 13.7641 9.44584 13.7641C9.34815 13.7641 9.25207 13.7392 9.16667 13.6917L3.60834 10.4834C3.52355 10.4344 3.45316 10.3639 3.40422 10.2791C3.35528 10.1942 3.32951 10.098 3.32951 10.0001C3.32951 9.90213 3.35528 9.80592 3.40422 9.72108C3.45316 9.63624 3.52355 9.56577 3.60834 9.51674L9.16667 6.30841C9.25155 6.2594 9.34783 6.23361 9.44584 6.23361C9.54385 6.23361 9.64013 6.2594 9.72501 6.30841C9.80966 6.35727 9.87976 6.42781 9.92809 6.51276C9.97642 6.59771 10.0012 6.69401 10 6.79174V13.2084ZM16.6667 13.2084C16.6648 13.3051 16.6378 13.3996 16.5885 13.4827C16.5391 13.5659 16.4689 13.6347 16.3849 13.6826C16.3009 13.7305 16.2059 13.7557 16.1092 13.7559C16.0125 13.756 15.9175 13.7311 15.8333 13.6834L11.6667 11.2834V8.71674L15.8333 6.31674C15.9175 6.2691 16.0125 6.24412 16.1092 6.24426C16.2059 6.2444 16.3009 6.26964 16.3849 6.31753C16.4689 6.36541 16.5391 6.43429 16.5885 6.51741C16.6378 6.60054 16.6648 6.69507 16.6667 6.79174V13.2084Z" fill="#250486"/>
</svg>
